<?xml version="1.0" encoding="UTF-8" standalone="no"?>
<!DOCTYPE svg PUBLIC "-//W3C//DTD SVG 1.1//EN"
 "http://www.w3.org/Graphics/SVG/1.1/DTD/svg11.dtd">
<!-- Generated by graphviz version 12.1.1 (20240910.0053)
 -->
<!-- Pages: 1 -->
<svg width="915pt" height="2608pt"
 viewBox="0.00 0.00 915.46 2607.55" xmlns="http://www.w3.org/2000/svg" xmlns:xlink="http://www.w3.org/1999/xlink">
<g id="graph0" class="graph" transform="scale(1 1) rotate(0) translate(4 2603.55)">
<polygon fill="white" stroke="none" points="-4,4 -4,-2603.55 911.46,-2603.55 911.46,4 -4,4"/>
<g id="clust1" class="cluster">
<title>cluster_backbone</title>
<polygon fill="none" stroke="blue" points="32.37,-824.31 32.37,-2591.55 876.37,-2591.55 876.37,-824.31 32.37,-824.31"/>
<text text-anchor="middle" x="454.37" y="-2574.25" font-family="Times New Roman,serif" font-size="14.00">Backbone (Dual&#45;Branch)</text>
</g>
<g id="clust2" class="cluster">
<title>cluster_visible</title>
<polygon fill="none" stroke="#cccccc" points="40.37,-1114.95 40.37,-2559.05 340.37,-2559.05 340.37,-1114.95 40.37,-1114.95"/>
<text text-anchor="middle" x="190.37" y="-2541.75" font-family="Times New Roman,serif" font-size="14.00">Visible Branch</text>
</g>
<g id="clust3" class="cluster">
<title>cluster_infrared</title>
<polygon fill="none" stroke="#cccccc" points="568.37,-1114.95 568.37,-2445.19 868.37,-2445.19 868.37,-1114.95 568.37,-1114.95"/>
<text text-anchor="middle" x="718.37" y="-2427.89" font-family="Times New Roman,serif" font-size="14.00">Infrared Branch</text>
</g>
<g id="clust4" class="cluster">
<title>cluster_enhancement</title>
<polygon fill="none" stroke="purple" points="454.37,-564.81 454.37,-806.81 806.37,-806.81 806.37,-564.81 454.37,-564.81"/>
<text text-anchor="middle" x="630.37" y="-789.51" font-family="Times New Roman,serif" font-size="14.00">Feature Enhancement</text>
</g>
<g id="clust5" class="cluster">
<title>cluster_head</title>
<polygon fill="none" stroke="darkgreen" points="497.37,-8 497.37,-547.31 761.37,-547.31 761.37,-8 497.37,-8"/>
<text text-anchor="middle" x="629.37" y="-530.01" font-family="Times New Roman,serif" font-size="14.00">Detection Head</text>
</g>
<!-- input -->
<g id="node1" class="node">
<title>input</title>
<ellipse fill="orange" stroke="orange" cx="209.37" cy="-2498.62" rx="103.06" ry="27.93"/>
<text text-anchor="middle" x="209.37" y="-2501.07" font-family="Helvetica,sans-Serif" font-size="14.00">Input</text>
<text text-anchor="middle" x="209.37" y="-2485.32" font-family="Helvetica,sans-Serif" font-size="14.00">4 channels (RGB+IR)</text>
</g>
<!-- silence_vis -->
<g id="node2" class="node">
<title>silence_vis</title>
<polygon fill="lightblue" stroke="lightblue" points="332.15,-2412.69 106.62,-2412.69 48.6,-2333.69 274.13,-2333.69 332.15,-2412.69"/>
<text text-anchor="middle" x="190.37" y="-2375.64" font-family="Helvetica,sans-Serif" font-size="14.00">SilenceChannel[0:3]</text>
<text text-anchor="middle" x="190.37" y="-2359.89" font-family="Helvetica,sans-Serif" font-size="14.00">→ RGB</text>
</g>
<!-- input&#45;&gt;silence_vis -->
<g id="edge1" class="edge">
<title>input&#45;&gt;silence_vis</title>
<path fill="none" stroke="black" d="M205.16,-2470.23C203.06,-2456.63 200.47,-2439.77 198.04,-2423.98"/>
<polygon fill="black" stroke="black" points="201.52,-2423.59 196.54,-2414.24 194.6,-2424.66 201.52,-2423.59"/>
</g>
<!-- silence_ir -->
<g id="node12" class="node">
<title>silence_ir</title>
<polygon fill="pink" stroke="pink" points="860.15,-2412.69 634.62,-2412.69 576.6,-2333.69 802.13,-2333.69 860.15,-2412.69"/>
<text text-anchor="middle" x="718.37" y="-2375.64" font-family="Helvetica,sans-Serif" font-size="14.00">SilenceChannel[3:4]</text>
<text text-anchor="middle" x="718.37" y="-2359.89" font-family="Helvetica,sans-Serif" font-size="14.00">→ IR</text>
</g>
<!-- input&#45;&gt;silence_ir -->
<g id="edge11" class="edge">
<title>input&#45;&gt;silence_ir</title>
<path fill="none" stroke="black" d="M285.03,-2479.28C371.69,-2458.26 514.3,-2423.68 612.1,-2399.96"/>
<polygon fill="black" stroke="black" points="612.83,-2403.39 621.73,-2397.63 611.18,-2396.59 612.83,-2403.39"/>
</g>
<!-- conv1_vis -->
<g id="node3" class="node">
<title>conv1_vis</title>
<polygon fill="lightblue" stroke="lightblue" points="240.75,-2275.69 152,-2275.69 152,-2236.19 240.75,-2236.19 240.75,-2275.69"/>
<text text-anchor="middle" x="196.37" y="-2258.39" font-family="Helvetica,sans-Serif" font-size="14.00">Conv</text>
<text text-anchor="middle" x="196.37" y="-2242.64" font-family="Helvetica,sans-Serif" font-size="14.00">64c, 3x3, s2</text>
</g>
<!-- silence_vis&#45;&gt;conv1_vis -->
<g id="edge2" class="edge">
<title>silence_vis&#45;&gt;conv1_vis</title>
<path fill="none" stroke="black" d="M192.39,-2333.5C193.18,-2318.37 194.07,-2301.3 194.8,-2287.11"/>
<polygon fill="black" stroke="black" points="198.28,-2287.67 195.3,-2277.5 191.29,-2287.3 198.28,-2287.67"/>
</g>
<!-- conv2_vis -->
<g id="node4" class="node">
<title>conv2_vis</title>
<polygon fill="lightblue" stroke="lightblue" points="250.5,-2178.19 154.25,-2178.19 154.25,-2138.69 250.5,-2138.69 250.5,-2178.19"/>
<text text-anchor="middle" x="202.37" y="-2160.89" font-family="Helvetica,sans-Serif" font-size="14.00">Conv</text>
<text text-anchor="middle" x="202.37" y="-2145.14" font-family="Helvetica,sans-Serif" font-size="14.00">128c, 3x3, s2</text>
</g>
<!-- conv1_vis&#45;&gt;conv2_vis -->
<g id="edge3" class="edge">
<title>conv1_vis&#45;&gt;conv2_vis</title>
<path fill="none" stroke="black" d="M197.56,-2236.08C198.38,-2222.95 199.5,-2205.16 200.45,-2190.03"/>
<polygon fill="black" stroke="black" points="203.94,-2190.31 201.08,-2180.11 196.96,-2189.87 203.94,-2190.31"/>
</g>
<!-- c3k2_1_vis -->
<g id="node5" class="node">
<title>c3k2_1_vis</title>
<polygon fill="lightblue" stroke="lightblue" points="297.12,-2080.69 177.62,-2080.69 177.62,-2041.19 297.12,-2041.19 297.12,-2080.69"/>
<text text-anchor="middle" x="237.37" y="-2063.39" font-family="Helvetica,sans-Serif" font-size="14.00">C3k2</text>
<text text-anchor="middle" x="237.37" y="-2047.64" font-family="Helvetica,sans-Serif" font-size="14.00">256c, False, 0.25</text>
</g>
<!-- conv2_vis&#45;&gt;c3k2_1_vis -->
<g id="edge4" class="edge">
<title>conv2_vis&#45;&gt;c3k2_1_vis</title>
<path fill="none" stroke="black" d="M209.29,-2138.58C214.2,-2125.19 220.88,-2106.96 226.49,-2091.63"/>
<polygon fill="black" stroke="black" points="229.68,-2093.11 229.83,-2082.52 223.11,-2090.7 229.68,-2093.11"/>
</g>
<!-- conv3_vis -->
<g id="node6" class="node">
<title>conv3_vis</title>
<polygon fill="lightblue" stroke="lightblue" points="297.5,-1983.19 201.25,-1983.19 201.25,-1943.69 297.5,-1943.69 297.5,-1983.19"/>
<text text-anchor="middle" x="249.37" y="-1965.89" font-family="Helvetica,sans-Serif" font-size="14.00">Conv</text>
<text text-anchor="middle" x="249.37" y="-1950.14" font-family="Helvetica,sans-Serif" font-size="14.00">256c, 3x3, s2</text>
</g>
<!-- c3k2_1_vis&#45;&gt;conv3_vis -->
<g id="edge5" class="edge">
<title>c3k2_1_vis&#45;&gt;conv3_vis</title>
<path fill="none" stroke="black" d="M239.75,-2041.08C241.41,-2027.82 243.67,-2009.81 245.59,-1994.58"/>
<polygon fill="black" stroke="black" points="249,-1995.46 246.78,-1985.1 242.06,-1994.59 249,-1995.46"/>
</g>
<!-- c3k2_2_vis -->
<g id="node7" class="node">
<title>c3k2_2_vis</title>
<polygon fill="lightblue" stroke="lightblue" points="326.12,-1885.69 206.62,-1885.69 206.62,-1846.19 326.12,-1846.19 326.12,-1885.69"/>
<text text-anchor="middle" x="266.37" y="-1868.39" font-family="Helvetica,sans-Serif" font-size="14.00">C3k2</text>
<text text-anchor="middle" x="266.37" y="-1852.64" font-family="Helvetica,sans-Serif" font-size="14.00">512c, False, 0.25</text>
</g>
<!-- conv3_vis&#45;&gt;c3k2_2_vis -->
<g id="edge6" class="edge">
<title>conv3_vis&#45;&gt;c3k2_2_vis</title>
<path fill="none" stroke="black" d="M252.73,-1943.58C255.09,-1930.32 258.3,-1912.31 261.01,-1897.08"/>
<polygon fill="black" stroke="black" points="264.39,-1898.05 262.7,-1887.59 257.5,-1896.82 264.39,-1898.05"/>
</g>
<!-- conv4_vis -->
<g id="node8" class="node">
<title>conv4_vis</title>
<polygon fill="lightblue" stroke="lightblue" points="314.5,-1707.53 218.25,-1707.53 218.25,-1668.03 314.5,-1668.03 314.5,-1707.53"/>
<text text-anchor="middle" x="266.37" y="-1690.23" font-family="Helvetica,sans-Serif" font-size="14.00">Conv</text>
<text text-anchor="middle" x="266.37" y="-1674.48" font-family="Helvetica,sans-Serif" font-size="14.00">512c, 3x3, s2</text>
</g>
<!-- c3k2_2_vis&#45;&gt;conv4_vis -->
<g id="edge7" class="edge">
<title>c3k2_2_vis&#45;&gt;conv4_vis</title>
<path fill="none" stroke="black" d="M266.37,-1845.76C266.37,-1815.31 266.37,-1755.67 266.37,-1719.31"/>
<polygon fill="black" stroke="black" points="269.87,-1719.46 266.37,-1709.46 262.87,-1719.46 269.87,-1719.46"/>
</g>
<!-- concat_p3 -->
<g id="node22" class="node">
<title>concat_p3</title>
<ellipse fill="green" stroke="green" cx="460.37" cy="-1687.78" rx="100.41" ry="100.41"/>
<text text-anchor="middle" x="460.37" y="-1690.23" font-family="Helvetica,sans-Serif" font-size="14.00">Concat</text>
<text text-anchor="middle" x="460.37" y="-1674.48" font-family="Helvetica,sans-Serif" font-size="14.00">P3 (256+256→512c)</text>
</g>
<!-- c3k2_2_vis&#45;&gt;concat_p3 -->
<g id="edge21" class="edge">
<title>c3k2_2_vis&#45;&gt;concat_p3</title>
<path fill="none" stroke="black" d="M287.51,-1845.76C309.32,-1825.94 344.76,-1793.77 377.88,-1763.69"/>
<polygon fill="black" stroke="black" points="380.07,-1766.43 385.12,-1757.12 375.37,-1761.25 380.07,-1766.43"/>
</g>
<!-- c3k2_3_vis -->
<g id="node9" class="node">
<title>c3k2_3_vis</title>
<polygon fill="lightblue" stroke="lightblue" points="306.62,-1529.37 226.12,-1529.37 226.12,-1489.87 306.62,-1489.87 306.62,-1529.37"/>
<text text-anchor="middle" x="266.37" y="-1512.07" font-family="Helvetica,sans-Serif" font-size="14.00">C3k2</text>
<text text-anchor="middle" x="266.37" y="-1496.32" font-family="Helvetica,sans-Serif" font-size="14.00">512c, True</text>
</g>
<!-- conv4_vis&#45;&gt;c3k2_3_vis -->
<g id="edge8" class="edge">
<title>conv4_vis&#45;&gt;c3k2_3_vis</title>
<path fill="none" stroke="black" d="M266.37,-1667.6C266.37,-1637.15 266.37,-1577.51 266.37,-1541.15"/>
<polygon fill="black" stroke="black" points="269.87,-1541.3 266.37,-1531.3 262.87,-1541.3 269.87,-1541.3"/>
</g>
<!-- conv5_vis -->
<g id="node10" class="node">
<title>conv5_vis</title>
<polygon fill="lightblue" stroke="lightblue" points="312.25,-1345.91 208.5,-1345.91 208.5,-1306.41 312.25,-1306.41 312.25,-1345.91"/>
<text text-anchor="middle" x="260.37" y="-1328.61" font-family="Helvetica,sans-Serif" font-size="14.00">Conv</text>
<text text-anchor="middle" x="260.37" y="-1312.86" font-family="Helvetica,sans-Serif" font-size="14.00">1024c, 3x3, s2</text>
</g>
<!-- c3k2_3_vis&#45;&gt;conv5_vis -->
<g id="edge9" class="edge">
<title>c3k2_3_vis&#45;&gt;conv5_vis</title>
<path fill="none" stroke="black" d="M265.74,-1489.55C264.7,-1458.1 262.62,-1395.12 261.38,-1357.51"/>
<polygon fill="black" stroke="black" points="264.88,-1357.65 261.06,-1347.77 257.89,-1357.88 264.88,-1357.65"/>
</g>
<!-- concat_p4 -->
<g id="node23" class="node">
<title>concat_p4</title>
<ellipse fill="green" stroke="green" cx="454.37" cy="-1326.16" rx="105.71" ry="105.71"/>
<text text-anchor="middle" x="454.37" y="-1328.61" font-family="Helvetica,sans-Serif" font-size="14.00">Concat</text>
<text text-anchor="middle" x="454.37" y="-1312.86" font-family="Helvetica,sans-Serif" font-size="14.00">P4 (512+512→1024c)</text>
</g>
<!-- c3k2_3_vis&#45;&gt;concat_p4 -->
<g id="edge23" class="edge">
<title>c3k2_3_vis&#45;&gt;concat_p4</title>
<path fill="none" stroke="black" d="M286.14,-1489.55C306.39,-1470 339.26,-1438.28 370.59,-1408.03"/>
<polygon fill="black" stroke="black" points="372.67,-1410.9 377.43,-1401.43 367.8,-1405.86 372.67,-1410.9"/>
</g>
<!-- c3k2_4_vis -->
<g id="node11" class="node">
<title>c3k2_4_vis</title>
<polygon fill="lightblue" stroke="lightblue" points="318.37,-1162.45 230.37,-1162.45 230.37,-1122.95 318.37,-1122.95 318.37,-1162.45"/>
<text text-anchor="middle" x="274.37" y="-1145.15" font-family="Helvetica,sans-Serif" font-size="14.00">C3k2</text>
<text text-anchor="middle" x="274.37" y="-1129.4" font-family="Helvetica,sans-Serif" font-size="14.00">1024c, True</text>
</g>
<!-- conv5_vis&#45;&gt;c3k2_4_vis -->
<g id="edge10" class="edge">
<title>conv5_vis&#45;&gt;c3k2_4_vis</title>
<path fill="none" stroke="black" d="M261.85,-1306.09C264.27,-1274.64 269.13,-1211.66 272.03,-1174.04"/>
<polygon fill="black" stroke="black" points="275.51,-1174.54 272.79,-1164.3 268.53,-1174 275.51,-1174.54"/>
</g>
<!-- concat_p5 -->
<g id="node24" class="node">
<title>concat_p5</title>
<ellipse fill="green" stroke="green" cx="630.37" cy="-948.63" rx="116.32" ry="116.32"/>
<text text-anchor="middle" x="630.37" y="-951.08" font-family="Helvetica,sans-Serif" font-size="14.00">Concat</text>
<text text-anchor="middle" x="630.37" y="-935.33" font-family="Helvetica,sans-Serif" font-size="14.00">P5 (1024+1024→2048c)</text>
</g>
<!-- c3k2_4_vis&#45;&gt;concat_p5 -->
<g id="edge25" class="edge">
<title>c3k2_4_vis&#45;&gt;concat_p5</title>
<path fill="none" stroke="black" d="M309.81,-1122.58C358.02,-1096.57 446.49,-1048.84 518.29,-1010.1"/>
<polygon fill="black" stroke="black" points="519.84,-1013.25 526.98,-1005.42 516.51,-1007.08 519.84,-1013.25"/>
</g>
<!-- conv1_ir -->
<g id="node13" class="node">
<title>conv1_ir</title>
<polygon fill="pink" stroke="pink" points="757.75,-2275.69 669,-2275.69 669,-2236.19 757.75,-2236.19 757.75,-2275.69"/>
<text text-anchor="middle" x="713.37" y="-2258.39" font-family="Helvetica,sans-Serif" font-size="14.00">Conv</text>
<text text-anchor="middle" x="713.37" y="-2242.64" font-family="Helvetica,sans-Serif" font-size="14.00">64c, 3x3, s2</text>
</g>
<!-- silence_ir&#45;&gt;conv1_ir -->
<g id="edge12" class="edge">
<title>silence_ir&#45;&gt;conv1_ir</title>
<path fill="none" stroke="black" d="M716.7,-2333.5C716.04,-2318.37 715.3,-2301.3 714.68,-2287.11"/>
<polygon fill="black" stroke="black" points="718.2,-2287.34 714.27,-2277.5 711.2,-2287.64 718.2,-2287.34"/>
</g>
<!-- conv2_ir -->
<g id="node14" class="node">
<title>conv2_ir</title>
<polygon fill="pink" stroke="pink" points="752.5,-2178.19 656.25,-2178.19 656.25,-2138.69 752.5,-2138.69 752.5,-2178.19"/>
<text text-anchor="middle" x="704.37" y="-2160.89" font-family="Helvetica,sans-Serif" font-size="14.00">Conv</text>
<text text-anchor="middle" x="704.37" y="-2145.14" font-family="Helvetica,sans-Serif" font-size="14.00">128c, 3x3, s2</text>
</g>
<!-- conv1_ir&#45;&gt;conv2_ir -->
<g id="edge13" class="edge">
<title>conv1_ir&#45;&gt;conv2_ir</title>
<path fill="none" stroke="black" d="M711.6,-2236.08C710.36,-2222.95 708.68,-2205.16 707.26,-2190.03"/>
<polygon fill="black" stroke="black" points="710.74,-2189.73 706.32,-2180.11 703.78,-2190.39 710.74,-2189.73"/>
</g>
<!-- c3k2_1_ir -->
<g id="node15" class="node">
<title>c3k2_1_ir</title>
<polygon fill="pink" stroke="pink" points="760.12,-2080.69 640.62,-2080.69 640.62,-2041.19 760.12,-2041.19 760.12,-2080.69"/>
<text text-anchor="middle" x="700.37" y="-2063.39" font-family="Helvetica,sans-Serif" font-size="14.00">C3k2</text>
<text text-anchor="middle" x="700.37" y="-2047.64" font-family="Helvetica,sans-Serif" font-size="14.00">256c, False, 0.25</text>
</g>
<!-- conv2_ir&#45;&gt;c3k2_1_ir -->
<g id="edge14" class="edge">
<title>conv2_ir&#45;&gt;c3k2_1_ir</title>
<path fill="none" stroke="black" d="M703.58,-2138.58C703.03,-2125.45 702.29,-2107.66 701.66,-2092.53"/>
<polygon fill="black" stroke="black" points="705.16,-2092.46 701.24,-2082.61 698.16,-2092.75 705.16,-2092.46"/>
</g>
<!-- conv3_ir -->
<g id="node16" class="node">
<title>conv3_ir</title>
<polygon fill="pink" stroke="pink" points="712.5,-1983.19 616.25,-1983.19 616.25,-1943.69 712.5,-1943.69 712.5,-1983.19"/>
<text text-anchor="middle" x="664.37" y="-1965.89" font-family="Helvetica,sans-Serif" font-size="14.00">Conv</text>
<text text-anchor="middle" x="664.37" y="-1950.14" font-family="Helvetica,sans-Serif" font-size="14.00">256c, 3x3, s2</text>
</g>
<!-- c3k2_1_ir&#45;&gt;conv3_ir -->
<g id="edge15" class="edge">
<title>c3k2_1_ir&#45;&gt;conv3_ir</title>
<path fill="none" stroke="black" d="M693.26,-2041.08C688.22,-2027.69 681.34,-2009.46 675.57,-1994.13"/>
<polygon fill="black" stroke="black" points="678.93,-1993.14 672.13,-1985.01 672.38,-1995.61 678.93,-1993.14"/>
</g>
<!-- c3k2_2_ir -->
<g id="node17" class="node">
<title>c3k2_2_ir</title>
<polygon fill="pink" stroke="pink" points="706.12,-1885.69 586.62,-1885.69 586.62,-1846.19 706.12,-1846.19 706.12,-1885.69"/>
<text text-anchor="middle" x="646.37" y="-1868.39" font-family="Helvetica,sans-Serif" font-size="14.00">C3k2</text>
<text text-anchor="middle" x="646.37" y="-1852.64" font-family="Helvetica,sans-Serif" font-size="14.00">512c, False, 0.25</text>
</g>
<!-- conv3_ir&#45;&gt;c3k2_2_ir -->
<g id="edge16" class="edge">
<title>conv3_ir&#45;&gt;c3k2_2_ir</title>
<path fill="none" stroke="black" d="M660.82,-1943.58C658.32,-1930.32 654.93,-1912.31 652.05,-1897.08"/>
<polygon fill="black" stroke="black" points="655.56,-1896.76 650.27,-1887.59 648.68,-1898.06 655.56,-1896.76"/>
</g>
<!-- conv4_ir -->
<g id="node18" class="node">
<title>conv4_ir</title>
<polygon fill="pink" stroke="pink" points="694.5,-1707.53 598.25,-1707.53 598.25,-1668.03 694.5,-1668.03 694.5,-1707.53"/>
<text text-anchor="middle" x="646.37" y="-1690.23" font-family="Helvetica,sans-Serif" font-size="14.00">Conv</text>
<text text-anchor="middle" x="646.37" y="-1674.48" font-family="Helvetica,sans-Serif" font-size="14.00">512c, 3x3, s2</text>
</g>
<!-- c3k2_2_ir&#45;&gt;conv4_ir -->
<g id="edge17" class="edge">
<title>c3k2_2_ir&#45;&gt;conv4_ir</title>
<path fill="none" stroke="black" d="M646.37,-1845.76C646.37,-1815.31 646.37,-1755.67 646.37,-1719.31"/>
<polygon fill="black" stroke="black" points="649.87,-1719.46 646.37,-1709.46 642.87,-1719.46 649.87,-1719.46"/>
</g>
<!-- c3k2_2_ir&#45;&gt;concat_p3 -->
<g id="edge22" class="edge">
<title>c3k2_2_ir&#45;&gt;concat_p3</title>
<path fill="none" stroke="black" d="M625.76,-1845.76C609.15,-1830.27 585.2,-1807.89 564.37,-1788.19 556.7,-1780.93 548.72,-1773.36 540.75,-1765.77"/>
<polygon fill="black" stroke="black" points="543.2,-1763.28 533.55,-1758.91 538.38,-1768.34 543.2,-1763.28"/>
</g>
<!-- c3k2_3_ir -->
<g id="node19" class="node">
<title>c3k2_3_ir</title>
<polygon fill="pink" stroke="pink" points="686.62,-1529.37 606.12,-1529.37 606.12,-1489.87 686.62,-1489.87 686.62,-1529.37"/>
<text text-anchor="middle" x="646.37" y="-1512.07" font-family="Helvetica,sans-Serif" font-size="14.00">C3k2</text>
<text text-anchor="middle" x="646.37" y="-1496.32" font-family="Helvetica,sans-Serif" font-size="14.00">512c, True</text>
</g>
<!-- conv4_ir&#45;&gt;c3k2_3_ir -->
<g id="edge18" class="edge">
<title>conv4_ir&#45;&gt;c3k2_3_ir</title>
<path fill="none" stroke="black" d="M646.37,-1667.6C646.37,-1637.15 646.37,-1577.51 646.37,-1541.15"/>
<polygon fill="black" stroke="black" points="649.87,-1541.3 646.37,-1531.3 642.87,-1541.3 649.87,-1541.3"/>
</g>
<!-- conv5_ir -->
<g id="node20" class="node">
<title>conv5_ir</title>
<polygon fill="pink" stroke="pink" points="700.25,-1345.91 596.5,-1345.91 596.5,-1306.41 700.25,-1306.41 700.25,-1345.91"/>
<text text-anchor="middle" x="648.37" y="-1328.61" font-family="Helvetica,sans-Serif" font-size="14.00">Conv</text>
<text text-anchor="middle" x="648.37" y="-1312.86" font-family="Helvetica,sans-Serif" font-size="14.00">1024c, 3x3, s2</text>
</g>
<!-- c3k2_3_ir&#45;&gt;conv5_ir -->
<g id="edge19" class="edge">
<title>c3k2_3_ir&#45;&gt;conv5_ir</title>
<path fill="none" stroke="black" d="M646.59,-1489.55C646.93,-1458.1 647.63,-1395.12 648.04,-1357.51"/>
<polygon fill="black" stroke="black" points="651.54,-1357.81 648.15,-1347.77 644.54,-1357.73 651.54,-1357.81"/>
</g>
<!-- c3k2_3_ir&#45;&gt;concat_p4 -->
<g id="edge24" class="edge">
<title>c3k2_3_ir&#45;&gt;concat_p4</title>
<path fill="none" stroke="black" d="M625.77,-1489.43C609.16,-1473.94 585.22,-1451.55 564.37,-1431.87 556.09,-1424.06 547.47,-1415.9 538.87,-1407.73"/>
<polygon fill="black" stroke="black" points="541.39,-1405.3 531.73,-1400.95 536.57,-1410.38 541.39,-1405.3"/>
</g>
<!-- c3k2_4_ir -->
<g id="node21" class="node">
<title>c3k2_4_ir</title>
<polygon fill="pink" stroke="pink" points="677.37,-1162.45 589.37,-1162.45 589.37,-1122.95 677.37,-1122.95 677.37,-1162.45"/>
<text text-anchor="middle" x="633.37" y="-1145.15" font-family="Helvetica,sans-Serif" font-size="14.00">C3k2</text>
<text text-anchor="middle" x="633.37" y="-1129.4" font-family="Helvetica,sans-Serif" font-size="14.00">1024c, True</text>
</g>
<!-- conv5_ir&#45;&gt;c3k2_4_ir -->
<g id="edge20" class="edge">
<title>conv5_ir&#45;&gt;c3k2_4_ir</title>
<path fill="none" stroke="black" d="M646.8,-1306.09C644.2,-1274.64 638.99,-1211.66 635.88,-1174.04"/>
<polygon fill="black" stroke="black" points="639.39,-1173.98 635.08,-1164.3 632.41,-1174.56 639.39,-1173.98"/>
</g>
<!-- c3k2_4_ir&#45;&gt;concat_p5 -->
<g id="edge26" class="edge">
<title>c3k2_4_ir&#45;&gt;concat_p5</title>
<path fill="none" stroke="black" d="M633.08,-1122.58C632.89,-1110.79 632.64,-1094.55 632.36,-1076.7"/>
<polygon fill="black" stroke="black" points="635.86,-1076.86 632.21,-1066.91 628.86,-1076.97 635.86,-1076.86"/>
</g>
<!-- detect -->
<g id="node30" class="node">
<title>detect</title>
<polygon fill="darkred" stroke="darkred" points="749.85,-37.71 749.85,-62.75 693.92,-80.46 614.83,-80.46 558.9,-62.75 558.9,-37.71 614.83,-20 693.92,-20 749.85,-37.71"/>
<polygon fill="none" stroke="darkred" points="753.85,-34.78 753.85,-65.68 694.54,-84.46 614.21,-84.46 554.9,-65.68 554.9,-34.78 614.21,-16 694.54,-16 753.85,-34.78"/>
<text text-anchor="middle" x="654.37" y="-52.68" font-family="Helvetica,sans-Serif" font-size="14.00">Detect</text>
<text text-anchor="middle" x="654.37" y="-36.93" font-family="Helvetica,sans-Serif" font-size="14.00">P3/P4/P5 Outputs</text>
</g>
<!-- concat_p3&#45;&gt;detect -->
<g id="edge33" class="edge">
<title>concat_p3&#45;&gt;detect</title>
<path fill="none" stroke="black" d="M527.36,-1612.5C538.89,-1602.87 551.38,-1594.05 564.37,-1587.37 688.28,-1523.73 777.53,-1631.39 872.37,-1529.37 933.96,-1463.13 895.37,-1417.61 895.37,-1327.16 895.37,-1327.16 895.37,-1327.16 895.37,-291.52 895.37,-194.04 795.27,-122.4 724.1,-83.79"/>
<polygon fill="black" stroke="black" points="726.07,-80.87 715.59,-79.27 722.78,-87.05 726.07,-80.87"/>
</g>
<!-- concat_p4_head -->
<g id="node28" class="node">
<title>concat_p4_head</title>
<ellipse fill="green" stroke="green" cx="629.37" cy="-292.52" rx="52.56" ry="52.56"/>
<text text-anchor="middle" x="629.37" y="-287.1" font-family="Helvetica,sans-Serif" font-size="14.00">Concat P4</text>
</g>
<!-- concat_p4&#45;&gt;concat_p4_head -->
<g id="edge31" class="edge">
<title>concat_p4&#45;&gt;concat_p4_head</title>
<path fill="none" stroke="black" d="M383.81,-1247.17C371.53,-1236.93 358.22,-1227.54 344.37,-1220.45 220.4,-1156.94 130.93,-1264.73 36.37,-1162.45 -28.21,-1092.59 13.37,-1044.77 13.37,-949.63 13.37,-949.63 13.37,-949.63 13.37,-611.31 13.37,-364.92 407.43,-309.37 565.2,-297.01"/>
<polygon fill="black" stroke="black" points="565.37,-300.51 575.08,-296.27 564.85,-293.53 565.37,-300.51"/>
</g>
<!-- sppf -->
<g id="node25" class="node">
<title>sppf</title>
<polygon fill="yellow" stroke="yellow" points="701,-742.06 665.69,-774.31 595.06,-774.31 559.75,-742.06 595.06,-709.81 665.69,-709.81 701,-742.06"/>
<text text-anchor="middle" x="630.37" y="-744.51" font-family="Helvetica,sans-Serif" font-size="14.00">SPPF</text>
<text text-anchor="middle" x="630.37" y="-728.76" font-family="Helvetica,sans-Serif" font-size="14.00">5x5 Pooling</text>
</g>
<!-- concat_p5&#45;&gt;sppf -->
<g id="edge27" class="edge">
<title>concat_p5&#45;&gt;sppf</title>
<path fill="none" stroke="black" d="M630.37,-831.9C630.37,-815.53 630.37,-799.64 630.37,-785.93"/>
<polygon fill="black" stroke="black" points="633.87,-785.99 630.37,-775.99 626.87,-785.99 633.87,-785.99"/>
</g>
<!-- c2psa -->
<g id="node26" class="node">
<title>c2psa</title>
<polygon fill="red" stroke="red" points="630.37,-651.81 462.12,-612.31 630.37,-572.81 798.62,-612.31 630.37,-651.81"/>
<text text-anchor="middle" x="630.37" y="-614.76" font-family="Helvetica,sans-Serif" font-size="14.00">C2PSA</text>
<text text-anchor="middle" x="630.37" y="-599.01" font-family="Helvetica,sans-Serif" font-size="14.00">Channel&#45;Spatial Attention</text>
</g>
<!-- sppf&#45;&gt;c2psa -->
<g id="edge28" class="edge">
<title>sppf&#45;&gt;c2psa</title>
<path fill="none" stroke="black" d="M630.37,-709.48C630.37,-695.7 630.37,-679.2 630.37,-663.79"/>
<polygon fill="black" stroke="black" points="633.87,-663.8 630.37,-653.8 626.87,-663.8 633.87,-663.8"/>
</g>
<!-- upsample1 -->
<g id="node27" class="node">
<title>upsample1</title>
<polygon fill="gray" stroke="gray" points="629.37,-514.81 504.92,-431.02 753.83,-431.02 629.37,-514.81"/>
<text text-anchor="middle" x="629.37" y="-461.4" font-family="Helvetica,sans-Serif" font-size="14.00">Upsample</text>
<text text-anchor="middle" x="629.37" y="-445.65" font-family="Helvetica,sans-Serif" font-size="14.00">2x (nearest)</text>
</g>
<!-- c2psa&#45;&gt;upsample1 -->
<g id="edge29" class="edge">
<title>c2psa&#45;&gt;upsample1</title>
<path fill="none" stroke="black" d="M630.12,-572.72C630.03,-558.63 629.92,-542.25 629.81,-526.42"/>
<polygon fill="black" stroke="black" points="633.31,-526.52 629.75,-516.54 626.31,-526.56 633.31,-526.52"/>
</g>
<!-- c2psa&#45;&gt;detect -->
<g id="edge35" class="edge">
<title>c2psa&#45;&gt;detect</title>
<path fill="none" stroke="black" d="M712.97,-591.92C735.76,-582.37 757.91,-568.21 771.37,-547.31 865.94,-400.54 745.23,-185.32 684.91,-94.35"/>
<polygon fill="black" stroke="black" points="687.9,-92.52 679.42,-86.17 682.09,-96.42 687.9,-92.52"/>
</g>
<!-- upsample1&#45;&gt;concat_p4_head -->
<g id="edge30" class="edge">
<title>upsample1&#45;&gt;concat_p4_head</title>
<path fill="none" stroke="black" d="M629.37,-430.8C629.37,-410.61 629.37,-382.24 629.37,-356.52"/>
<polygon fill="black" stroke="black" points="632.87,-356.83 629.37,-346.83 625.87,-356.83 632.87,-356.83"/>
</g>
<!-- c3k2_p4 -->
<g id="node29" class="node">
<title>c3k2_p4</title>
<polygon fill="lightblue" stroke="lightblue" points="669.37,-181.96 615.37,-181.96 615.37,-142.46 669.37,-142.46 669.37,-181.96"/>
<text text-anchor="middle" x="642.37" y="-164.66" font-family="Helvetica,sans-Serif" font-size="14.00">C3k2</text>
<text text-anchor="middle" x="642.37" y="-148.91" font-family="Helvetica,sans-Serif" font-size="14.00">512c</text>
</g>
<!-- concat_p4_head&#45;&gt;c3k2_p4 -->
<g id="edge32" class="edge">
<title>concat_p4_head&#45;&gt;c3k2_p4</title>
<path fill="none" stroke="black" d="M634.59,-240.08C636.18,-224.33 637.89,-207.52 639.29,-193.65"/>
<polygon fill="black" stroke="black" points="642.76,-194.12 640.29,-183.82 635.8,-193.42 642.76,-194.12"/>
</g>
<!-- c3k2_p4&#45;&gt;detect -->
<g id="edge34" class="edge">
<title>c3k2_p4&#45;&gt;detect</title>
<path fill="none" stroke="black" d="M644.47,-142.06C645.85,-129.38 647.72,-112.2 649.47,-96.19"/>
<polygon fill="black" stroke="black" points="652.94,-96.65 650.54,-86.33 645.98,-95.89 652.94,-96.65"/>
</g>
</g>
</svg>
